HIERARCHY
ROOT mixamorig:Hips
{
	OFFSET -0.000008 104.274872 1.554316
	CHANNELS 6 Xposition Yposition Zposition Xrotation Yrotation Zrotation
	JOINT mixamorig:Spine
	{
		OFFSET -0.000005 10.181587 0.131521
		CHANNELS 6 Xposition Yposition Zposition Xrotation Yrotation Zrotation
		JOINT mixamorig:Spine1
		{
			OFFSET -0.000000 9.893967 -1.470711
			CHANNELS 3 Xrotation Yrotation Zrotation
			JOINT mixamorig:Spine2
			{
				OFFSET -0.000000 9.220772 -1.370643
				CHANNELS 3 Xrotation Yrotation Zrotation
				JOINT mixamorig:Neck
				{
					OFFSET 0.000001 16.740387 -2.049035
					CHANNELS 6 Xposition Yposition Zposition Xrotation Yrotation Zrotation
					JOINT mixamorig:Head
					{
						OFFSET 0.000000 9.617889 1.685008
						CHANNELS 6 Xposition Yposition Zposition Xrotation Yrotation Zrotation
						JOINT mixamorig:HeadTop_End
						{
							OFFSET 0.000002 22.037369 7.501095
							CHANNELS 6 Xposition Yposition Zposition Xrotation Yrotation Zrotation
							End Site
							{
								OFFSET 0.000002 23.106552 -2.828258
							}
						}
					}
				}
				JOINT mixamorig:RightShoulder
				{
					OFFSET -4.569969 11.014908 -2.160884
					CHANNELS 6 Xposition Yposition Zposition Xrotation Yrotation Zrotation
					JOINT mixamorig:RightArm
					{
						OFFSET -10.592846 -0.524811 -2.232097
						CHANNELS 3 Xrotation Yrotation Zrotation
						JOINT mixamorig:RightForeArm
						{
							OFFSET -27.841518 0.000000 -0.000004
							CHANNELS 3 Xrotation Yrotation Zrotation
							JOINT mixamorig:RightHand
							{
								OFFSET -28.328838 0.000000 0.000019
								CHANNELS 3 Xrotation Yrotation Zrotation
								JOINT mixamorig:RightHandThumb1
								{
									OFFSET -2.464806 -1.573990 2.681852
									CHANNELS 6 Xposition Yposition Zposition Xrotation Yrotation Zrotation
									JOINT mixamorig:RightHandThumb2
									{
										OFFSET -3.215187 -1.872772 1.924281
										CHANNELS 3 Xrotation Yrotation Zrotation
										JOINT mixamorig:RightHandThumb3
										{
											OFFSET -2.654839 -1.527985 1.512611
											CHANNELS 3 Xrotation Yrotation Zrotation
											JOINT mixamorig:RightHandThumb4
											{
												OFFSET -2.018822 -1.152008 1.108052
												CHANNELS 3 Xrotation Yrotation Zrotation
												End Site
												{
													OFFSET -1.888100 -1.145340 1.324313
												}
											}
										}
									}
								}
								JOINT mixamorig:RightHandIndex1
								{
									OFFSET -9.108284 -0.517868 2.259834
									CHANNELS 6 Xposition Yposition Zposition Xrotation Yrotation Zrotation
									JOINT mixamorig:RightHandIndex2
									{
										OFFSET -3.699997 0.000015 0.001215
										CHANNELS 3 Xrotation Yrotation Zrotation
										JOINT mixamorig:RightHandIndex3
										{
											OFFSET -2.850006 0.000000 -0.000521
											CHANNELS 3 Xrotation Yrotation Zrotation
											JOINT mixamorig:RightHandIndex4
											{
												OFFSET -2.772186 0.000000 -0.000020
												CHANNELS 3 Xrotation Yrotation Zrotation
												End Site
												{
													OFFSET -2.772186 0.000000 -0.000502
												}
											}
										}
									}
								}
								JOINT mixamorig:RightHandMiddle1
								{
									OFFSET -9.532501 -0.000046 -0.000025
									CHANNELS 6 Xposition Yposition Zposition Xrotation Yrotation Zrotation
									JOINT mixamorig:RightHandMiddle2
									{
										OFFSET -3.699997 0.000015 0.003713
										CHANNELS 3 Xrotation Yrotation Zrotation
										JOINT mixamorig:RightHandMiddle3
										{
											OFFSET -2.949997 0.000000 -0.002054
											CHANNELS 3 Xrotation Yrotation Zrotation
											JOINT mixamorig:RightHandMiddle4
											{
												OFFSET -2.946632 0.000015 -0.000155
												CHANNELS 3 Xrotation Yrotation Zrotation
												End Site
												{
													OFFSET -2.946625 0.000000 -0.001135
												}
											}
										}
									}
								}
								JOINT mixamorig:RightHandRing1
								{
									OFFSET -9.103592 -0.043076 -1.865134
									CHANNELS 6 Xposition Yposition Zposition Xrotation Yrotation Zrotation
									JOINT mixamorig:RightHandRing2
									{
										OFFSET -3.379272 0.000000 -0.001054
										CHANNELS 3 Xrotation Yrotation Zrotation
										JOINT mixamorig:RightHandRing3
										{
											OFFSET -2.889687 0.000000 0.000379
											CHANNELS 3 Xrotation Yrotation Zrotation
											JOINT mixamorig:RightHandRing4
											{
												OFFSET -2.638817 0.000000 0.000942
												CHANNELS 3 Xrotation Yrotation Zrotation
												End Site
												{
													OFFSET -2.638802 0.000000 0.005160
												}
											}
										}
									}
								}
								JOINT mixamorig:RightHandPinky1
								{
									OFFSET -8.076675 -0.486710 -3.806279
									CHANNELS 6 Xposition Yposition Zposition Xrotation Yrotation Zrotation
									JOINT mixamorig:RightHandPinky2
									{
										OFFSET -3.599998 -0.000031 -0.003747
										CHANNELS 3 Xrotation Yrotation Zrotation
										JOINT mixamorig:RightHandPinky3
										{
											OFFSET -2.099991 -0.000015 -0.005740
											CHANNELS 3 Xrotation Yrotation Zrotation
											JOINT mixamorig:RightHandPinky4
											{
												OFFSET -2.115776 -0.000015 -0.003680
												CHANNELS 3 Xrotation Yrotation Zrotation
												End Site
												{
													OFFSET -2.115784 -0.000015 -0.003507
												}
											}
										}
									}
								}
							}
						}
					}
				}
				JOINT mixamorig:LeftShoulder
				{
					OFFSET 4.570447 11.014709 -2.160855
					CHANNELS 6 Xposition Yposition Zposition Xrotation Yrotation Zrotation
					JOINT mixamorig:LeftArm
					{
						OFFSET 10.592369 -0.524597 -2.232120
						CHANNELS 3 Xrotation Yrotation Zrotation
						JOINT mixamorig:LeftForeArm
						{
							OFFSET 27.841522 -0.000031 0.000023
							CHANNELS 3 Xrotation Yrotation Zrotation
							JOINT mixamorig:LeftHand
							{
								OFFSET 28.328835 -0.000031 0.000018
								CHANNELS 3 Xrotation Yrotation Zrotation
								JOINT mixamorig:LeftHandThumb1
								{
									OFFSET 2.466141 -1.576187 2.681734
									CHANNELS 6 Xposition Yposition Zposition Xrotation Yrotation Zrotation
									JOINT mixamorig:LeftHandThumb2
									{
										OFFSET 3.217804 -1.872055 1.916487
										CHANNELS 3 Xrotation Yrotation Zrotation
										JOINT mixamorig:LeftHandThumb3
										{
											OFFSET 2.656013 -1.528809 1.514505
											CHANNELS 3 Xrotation Yrotation Zrotation
											JOINT mixamorig:LeftHandThumb4
											{
												OFFSET 2.020889 -1.154068 1.115134
												CHANNELS 3 Xrotation Yrotation Zrotation
												End Site
												{
													OFFSET 1.908852 -1.150833 1.300489
												}
											}
										}
									}
								}
								JOINT mixamorig:LeftHandIndex1
								{
									OFFSET 9.109306 -0.518036 2.259871
									CHANNELS 6 Xposition Yposition Zposition Xrotation Yrotation Zrotation
									JOINT mixamorig:LeftHandIndex2
									{
										OFFSET 3.699997 -0.000015 -0.000323
										CHANNELS 3 Xrotation Yrotation Zrotation
										JOINT mixamorig:LeftHandIndex3
										{
											OFFSET 2.850006 -0.000015 0.000350
											CHANNELS 3 Xrotation Yrotation Zrotation
											JOINT mixamorig:LeftHandIndex4
											{
												OFFSET 2.774864 0.000000 -0.000027
												CHANNELS 3 Xrotation Yrotation Zrotation
												End Site
												{
													OFFSET 2.774872 -0.000015 -0.000099
												}
											}
										}
									}
								}
								JOINT mixamorig:LeftHandMiddle1
								{
									OFFSET 9.533401 0.000031 0.000044
									CHANNELS 6 Xposition Yposition Zposition Xrotation Yrotation Zrotation
									JOINT mixamorig:LeftHandMiddle2
									{
										OFFSET 3.699997 -0.000015 -0.000231
										CHANNELS 3 Xrotation Yrotation Zrotation
										JOINT mixamorig:LeftHandMiddle3
										{
											OFFSET 2.950005 0.000000 -0.000060
											CHANNELS 3 Xrotation Yrotation Zrotation
											JOINT mixamorig:LeftHandMiddle4
											{
												OFFSET 2.952858 0.000000 0.000063
												CHANNELS 3 Xrotation Yrotation Zrotation
												End Site
												{
													OFFSET 2.952866 0.000000 0.000228
												}
											}
										}
									}
								}
								JOINT mixamorig:LeftHandRing1
								{
									OFFSET 9.104530 -0.043030 -1.865074
									CHANNELS 6 Xposition Yposition Zposition Xrotation Yrotation Zrotation
									JOINT mixamorig:LeftHandRing2
									{
										OFFSET 3.150002 -0.000015 0.000042
										CHANNELS 3 Xrotation Yrotation Zrotation
										JOINT mixamorig:LeftHandRing3
										{
											OFFSET 2.949997 0.000000 0.000037
											CHANNELS 3 Xrotation Yrotation Zrotation
											JOINT mixamorig:LeftHandRing4
											{
												OFFSET 2.644318 -0.000015 0.000059
												CHANNELS 3 Xrotation Yrotation Zrotation
												End Site
												{
													OFFSET 2.644318 0.000000 0.000121
												}
											}
										}
									}
								}
								JOINT mixamorig:LeftHandPinky1
								{
									OFFSET 8.077782 -0.486877 -3.806256
									CHANNELS 6 Xposition Yposition Zposition Xrotation Yrotation Zrotation
									JOINT mixamorig:LeftHandPinky2
									{
										OFFSET 3.599968 0.000031 0.014726
										CHANNELS 3 Xrotation Yrotation Zrotation
										JOINT mixamorig:LeftHandPinky3
										{
											OFFSET 2.099991 0.000015 0.007705
											CHANNELS 3 Xrotation Yrotation Zrotation
											JOINT mixamorig:LeftHandPinky4
											{
												OFFSET 2.125511 0.000015 0.007514
												CHANNELS 3 Xrotation Yrotation Zrotation
												End Site
												{
													OFFSET 2.125526 0.000015 0.006258
												}
											}
										}
									}
								}
							}
						}
					}
				}
			}
		}
	}
	JOINT mixamorig:RightUpLeg
	{
		OFFSET -8.207787 -6.751671 -1.599560
		CHANNELS 6 Xposition Yposition Zposition Xrotation Yrotation Zrotation
		JOINT mixamorig:RightLeg
		{
			OFFSET -0.000001 -44.370113 0.345939
			CHANNELS 3 Xrotation Yrotation Zrotation
			JOINT mixamorig:RightFoot
			{
				OFFSET 0.000001 -44.423676 -3.043536
				CHANNELS 3 Xrotation Yrotation Zrotation
				JOINT mixamorig:RightToeBase
				{
					OFFSET -0.000003 -8.728670 10.710561
					CHANNELS 3 Xrotation Yrotation Zrotation
					JOINT mixamorig:RightToe_End
					{
						OFFSET -0.000003 -0.000677 9.278120
						CHANNELS 3 Xrotation Yrotation Zrotation
						End Site
						{
							OFFSET -0.000003 -0.000677 9.278120
						}
					}
				}
			}
		}
	}
	JOINT mixamorig:LeftUpLeg
	{
		OFFSET 8.207791 -6.751701 -1.599555
		CHANNELS 6 Xposition Yposition Zposition Xrotation Yrotation Zrotation
		JOINT mixamorig:LeftLeg
		{
			OFFSET -0.000002 -44.370033 0.346958
			CHANNELS 3 Xrotation Yrotation Zrotation
			JOINT mixamorig:LeftFoot
			{
				OFFSET 0.000000 -44.423653 -3.044392
				CHANNELS 3 Xrotation Yrotation Zrotation
				JOINT mixamorig:LeftToeBase
				{
					OFFSET -0.000003 -8.728668 10.710560
					CHANNELS 3 Xrotation Yrotation Zrotation
					JOINT mixamorig:LeftToe_End
					{
						OFFSET -0.000003 -0.000677 9.278137
						CHANNELS 3 Xrotation Yrotation Zrotation
						End Site
						{
							OFFSET -0.000003 -0.000677 9.278137
						}
					}
				}
			}
		}
	}
}
MOTION
Frames: 4
Frame Time: 0.033333
-0.715325 97.986198 1.228554 -4.073166 -2.290980 6.932695 -0.000005 10.181598 0.131522 8.221398 0.704402 5.715143 0.451979 -0.148079 1.950545 0.440239 -0.186722 1.961004 0.000004 16.740395 -2.049034 6.648186 0.309355 0.100516 -0.000004 9.617885 1.685010 -3.952233 7.479178 -11.158930 0.000003 22.037354 7.501097 0.000000 -0.000000 -0.000000 -4.569967 11.014919 -2.160883 5.759527 -0.134308 1.339101 -59.846568 7.908913 14.322779 -0.000043 85.375336 0.000077 8.053409 10.628708 -0.191517 -2.464816 -1.573975 2.681865 33.438888 21.933151 11.947825 8.291308 -33.336760 -3.406684 -8.333094 11.120762 -10.699213 -0.000003 0.000001 0.000000 -9.108285 -0.517872 2.259835 0.103342 -2.997233 8.470498 0.452976 -1.986594 25.583464 0.150612 1.165577 -14.590276 0.000000 0.000001 0.000007 -9.532497 -0.000042 -0.000026 0.106827 -3.021734 8.491177 0.436640 -1.913667 25.477941 0.151241 1.138562 -14.588548 -0.000000 0.000000 -0.000006 -9.103597 -0.043069 -1.865134 0.088031 -2.896033 8.504057 0.456524 -2.030704 25.463806 0.145487 1.163921 -14.596449 0.000000 0.000001 -0.000001 -8.076667 -0.486721 -3.806278 0.066090 -2.783713 8.516429 0.384102 -1.919989 25.404701 0.175768 1.116128 -14.597537 -0.000001 0.000003 0.000004 4.570450 11.014729 -2.160855 -1.745712 -2.291478 -5.935752 -45.876318 6.090561 -5.533025 24.160491 -109.440463 17.967255 -6.856428 -3.278368 23.789228 2.466133 -1.576206 2.681742 34.571737 -20.487665 -11.296312 8.247975 31.575531 2.851556 -10.753866 -16.734995 8.294122 0.000003 0.000006 -0.000004 9.109322 -0.518054 2.259874 0.138394 3.291279 -9.171876 0.577201 2.542620 -25.556579 0.188808 -1.483801 14.564943 0.000001 0.000003 -0.000002 9.533444 0.000031 0.000046 0.137348 3.284941 -9.196787 0.569960 2.526114 -25.472793 0.188386 -1.473944 14.565556 0.000002 0.000004 0.000007 9.104558 -0.043039 -1.865068 0.131435 3.248565 -9.217193 0.569340 2.520495 -25.440023 0.189175 -1.478902 14.591712 0.000002 -0.000002 0.000002 8.077795 -0.486891 -3.806255 0.178923 3.539861 -9.250955 0.656822 2.471396 -25.389603 0.137715 -1.490286 14.562679 -0.000000 0.000002 0.000002 -8.207789 -6.751664 -1.599561 -20.727326 -20.511552 -27.039095 33.032328 9.836878 -9.039065 -20.241370 18.049565 16.427945 -3.711053 0.000011 -0.000004 0.000000 -0.000000 -0.000000 8.207792 -6.751707 -1.599555 -5.289939 31.552486 -8.958323 34.840382 -9.544556 9.982278 -20.788615 -11.068854 3.466659 0.896496 0.010348 -1.013387 -0.000000 0.000000 -0.000000 
-1.654526 97.930740 1.389659 -4.192379 -1.341765 5.119662 -0.000007 10.181571 0.131521 7.818162 0.473149 5.866733 0.467628 -0.155676 1.814432 0.453611 -0.186916 1.834926 -0.000002 16.740381 -2.049035 6.615257 0.273074 -0.065153 0.000000 9.617890 1.685010 -3.442242 6.815393 -10.499526 0.000003 22.037369 7.501097 -0.000001 0.000000 -0.000000 -4.569974 11.014915 -2.160882 5.458279 0.163910 1.316524 -58.817443 4.860876 13.914872 0.000392 88.505516 -0.000486 10.034438 10.055035 1.041695 -2.464812 -1.573984 2.681867 36.471434 21.048698 11.825054 8.545772 -34.025212 -3.361129 -8.279642 9.375770 -10.444766 -0.000001 -0.000002 0.000000 -9.108271 -0.517866 2.259843 0.307499 -3.909886 13.553471 0.480176 -2.042730 26.349864 0.150421 1.164840 -14.580972 -0.000002 0.000001 -0.000000 -9.532488 -0.000042 -0.000017 0.166001 -3.326717 13.879323 0.429959 -1.899242 25.282695 0.151232 1.138542 -14.588306 0.000001 0.000002 -0.000001 -9.103570 -0.043076 -1.865128 -0.104053 -2.250735 14.094499 0.418883 -1.950057 24.370127 0.145161 1.162652 -14.580296 -0.000000 0.000001 0.000001 -8.076657 -0.486721 -3.806273 -0.270023 -1.627150 14.299142 0.334420 -1.801236 23.823964 0.175284 1.114442 -14.576081 -0.000002 -0.000001 0.000001 4.570446 11.014741 -2.160855 -1.317829 -2.455013 -5.769875 -48.241824 3.370679 -8.342828 15.251131 -108.011983 8.389572 -7.713607 -0.806103 20.368089 2.466149 -1.576220 2.681745 36.575410 -19.169938 -10.746696 8.772580 33.103065 3.013513 -10.557558 -12.923528 8.536021 0.000006 -0.000003 -0.000003 9.109330 -0.518048 2.259876 0.276090 3.922317 -15.550712 0.648965 2.686970 -27.132428 0.188509 -1.482652 14.553257 0.000000 0.000003 -0.000000 9.533442 0.000027 0.000048 0.250414 3.836647 -16.247476 0.604937 2.598240 -26.256504 0.188042 -1.472566 14.551972 0.000000 0.000001 -0.000001 9.104565 -0.043040 -1.865069 0.124530 3.434359 -16.999333 0.585036 2.553193 -25.794501 0.188193 -1.475126 14.553690 0.000001 0.000000 0.000006 8.077821 -0.486876 -3.806253 0.363739 4.215864 -17.867802 0.681604 2.518562 -25.910053 0.137455 -1.489058 14.550605 0.000000 -0.000002 -0.000001 -8.207784 -6.751662 -1.599560 -19.237074 -21.040107 -24.481959 33.449690 9.474409 -8.516994 -20.372767 17.078031 15.328309 -3.874691 -0.000007 -0.000005 -0.000000 -0.000000 -0.000000 8.207792 -6.751706 -1.599552 -7.806035 30.954048 -5.261894 36.502997 -8.534119 10.056911 -21.608900 -12.535669 2.247854 0.755802 0.009420 -0.966985 -0.000000 0.000001 -0.000000 
-2.978909 97.740639 1.592363 -4.457847 -0.561779 2.663638 -0.000006 10.181595 0.131520 7.459653 0.400055 5.743978 0.491892 -0.095856 1.586936 0.475393 -0.118213 1.621152 0.000001 16.740377 -2.049035 6.575609 0.235688 -0.240282 0.000001 9.617851 1.685008 -2.923025 5.980010 -9.372626 0.000002 22.037338 7.501096 0.000001 -0.000000 0.000000 -4.569968 11.014898 -2.160884 4.989607 0.846558 1.255857 -57.211358 1.308039 13.351712 -0.000094 92.599545 0.000038 12.890994 9.201633 0.794884 -2.464813 -1.573980 2.681879 40.972474 19.635740 11.101673 9.002845 -35.315059 -3.346511 -7.891226 6.296332 -10.156597 -0.000000 0.000001 0.000000 -9.108280 -0.517880 2.259841 0.836201 -5.139655 21.868616 0.531679 -2.144093 27.747201 0.150503 1.165143 -14.584684 -0.000001 0.000000 -0.000001 -9.532500 -0.000061 -0.000015 0.305341 -3.832583 22.709443 0.424447 -1.887279 25.120896 0.151291 1.138770 -14.591227 -0.000001 0.000001 -0.000004 -9.103593 -0.043088 -1.865124 -0.732331 -1.428144 23.341420 0.374057 -1.848409 23.004986 0.145208 1.162826 -14.582444 0.000000 0.000001 0.000003 -8.076676 -0.486709 -3.806270 -1.469814 0.154398 23.970916 0.272865 -1.639619 21.700466 0.175328 1.114564 -14.577543 -0.000000 0.000001 0.000002 4.570451 11.014717 -2.160857 -0.636636 -2.629126 -5.135049 -51.804389 -0.129568 -11.291168 0.895361 -106.660227 -6.592223 -8.477343 1.906227 16.835855 2.466152 -1.576201 2.681728 39.599777 -17.090479 -9.762358 9.543119 35.472246 3.300054 -9.850553 -7.093632 8.802694 -0.000002 -0.000003 -0.000001 9.109310 -0.518074 2.259870 0.612849 4.834464 -25.516465 0.769011 2.908408 -29.596016 0.188596 -1.482993 14.556554 0.000001 0.000009 -0.000002 9.533435 0.000008 0.000043 0.525881 4.676571 -27.235620 0.668408 2.723056 -27.625462 0.188124 -1.472901 14.555347 0.000000 -0.000001 -0.000001 9.104531 -0.043051 -1.865072 -0.033343 3.706407 -29.108712 0.608682 2.601483 -26.320327 0.188061 -1.474624 14.548532 -0.000000 0.000005 -0.000002 8.077807 -0.486888 -3.806258 0.791018 5.202877 -31.272513 0.720459 2.590469 -26.708741 0.137547 -1.489506 14.554880 -0.000000 0.000003 -0.000001 -8.207783 -6.751661 -1.599560 -17.509359 -21.664986 -21.034771 34.387762 9.174842 -7.944254 -20.763121 16.157663 13.897073 -4.012180 -0.000000 0.000001 0.000000 -0.000000 -0.000000 8.207790 -6.751700 -1.599555 -11.111802 30.416366 -0.150953 38.975167 -7.634908 10.125047 -22.750564 -14.130635 0.853652 0.518763 0.010984 -1.044138 -0.000000 -0.000000 0.000000 
-4.607087 97.461296 1.822114 -4.799552 0.124540 -0.287104 -0.000005 10.181600 0.131519 7.112050 0.403421 5.421129 0.523808 0.004140 1.286615 0.505223 -0.008322 1.336148 0.000004 16.740389 -2.049034 6.522273 0.198297 -0.426591 0.000002 9.617875 1.685009 -2.376734 5.003698 -7.895042 0.000002 22.037354 7.501095 0.000000 0.000000 -0.000000 -4.569966 11.014889 -2.160882 4.392882 1.797604 1.256099 -55.189325 -2.525722 12.755241 -0.000027 97.336746 0.000051 16.260954 8.107610 -0.434905 -2.464809 -1.573980 2.681875 46.807467 17.513623 9.848815 9.731431 -37.457567 -3.401248 -7.042418 1.356647 -9.897099 0.000002 -0.000004 0.000000 -9.108271 -0.517866 2.259836 1.927346 -6.472374 34.141500 0.620856 -2.306479 30.024610 0.150675 1.165810 -14.593302 0.000000 0.000000 0.000003 -9.532498 -0.000050 -0.000020 0.614186 -4.570947 35.772586 0.423091 -1.884343 25.081016 0.151347 1.138981 -14.593932 -0.000000 0.000001 -0.000003 -9.103580 -0.043081 -1.865130 -2.160309 -0.916480 37.141903 0.329781 -1.740913 21.576786 0.145418 1.163635 -14.593046 0.000000 0.000001 0.000004 -8.076686 -0.486712 -3.806275 -4.384499 1.709943 38.555407 0.210138 -1.453003 19.283333 0.175592 1.115485 -14.589480 -0.000000 0.000001 -0.000002 4.570447 11.014704 -2.160853 0.291991 -2.832834 -4.155269 -56.534647 -3.903483 -14.199336 -17.951183 -106.495490 -25.960036 -8.933022 4.599391 13.145946 2.466117 -1.576206 2.681738 43.631733 -14.159236 -8.400328 10.580299 38.789720 3.714815 -8.561342 0.972271 8.985422 -0.000002 -0.000005 0.000009 9.109331 -0.518043 2.259876 1.297005 5.953315 -39.403600 0.952680 3.209029 -33.042700 0.188832 -1.483882 14.565855 0.000000 -0.000006 0.000001 9.533433 0.000029 0.000047 1.110104 5.777439 -42.512071 0.766191 2.902098 -29.620560 0.188394 -1.473926 14.565691 0.000000 0.000000 -0.000002 9.104555 -0.043042 -1.865068 -0.452062 4.340241 -45.892997 0.643711 2.671024 -27.081512 0.188397 -1.475923 14.561664 -0.000000 0.000002 0.000000 8.077802 -0.486888 -3.806258 1.659939 6.430205 -49.899320 0.775741 2.688841 -27.811516 0.137783 -1.490559 14.565495 -0.000000 -0.000003 -0.000002 -8.207783 -6.751659 -1.599560 -15.492486 -22.383698 -16.958450 35.446052 9.140204 -7.068024 -21.318651 15.317170 12.020985 -4.043607 0.000000 -0.000001 -0.000000 -0.000000 -0.000000 8.207790 -6.751692 -1.599557 -14.807406 29.795956 5.962939 41.643264 -6.983989 10.069840 -24.151740 -15.843361 -0.649704 0.416751 0.011858 -1.084984 0.000000 0.000000 -0.000000 
